<svg width="23" height="39" viewBox="0 0 23 39" fill="none" xmlns="http://www.w3.org/2000/svg">
<path d="M21.5923 8.77691H19.7V2.46924C19.7 1.39691 18.88 0.576935 17.8077 0.576935C16.7353 0.576935 15.9154 1.39691 15.9154 2.46924V8.77691H7.08464V2.46924C7.08464 1.39691 6.26466 0.576935 5.19233 0.576935C4.12 0.576935 3.30002 1.39691 3.30002 2.46924V8.77691H1.40772C1.02925 8.77691 0.77697 9.02919 0.77697 9.40765V14.2015C0.77697 17.3553 1.97541 20.383 4.12007 22.7169C6.01238 24.8615 7.08471 27.6369 7.08471 30.4753V32.1153C7.08471 33.8815 8.47238 35.2692 10.2386 35.2692H10.8693V37.7923C10.8693 38.1707 11.1216 38.423 11.5001 38.423C11.8785 38.423 12.1308 38.1707 12.1308 37.7923V35.2692H12.7616C14.5277 35.2692 15.9154 33.8815 15.9154 32.1153V30.5384C15.9154 27.6369 16.9246 24.9246 18.8801 22.78C21.0247 20.4462 22.2232 17.3553 22.2232 14.2016V9.40773C22.2231 9.02927 21.9707 8.77691 21.5923 8.77691ZM17.1769 2.46924C17.1769 2.09078 17.4292 1.8385 17.8077 1.8385C18.1861 1.8385 18.4384 2.09078 18.4384 2.46924V8.77691H17.1769V2.46924ZM4.56151 2.46924C4.56151 2.15383 4.8138 1.8385 5.19226 1.8385C5.57072 1.8385 5.823 2.09078 5.823 2.46924V8.77691H4.56144V2.46924H4.56151ZM20.9615 14.1385C20.9615 17.04 19.9523 19.7524 17.9969 21.897C15.8523 24.2308 14.6539 27.3215 14.6539 30.4754V32.1154C14.6539 33.1878 13.8339 34.0077 12.7616 34.0077H10.2385C9.16618 34.0077 8.3462 33.1878 8.3462 32.1154V30.5385C8.3462 27.3847 7.14777 24.2939 5.0031 21.9601C3.11079 19.8154 2.03846 17.04 2.03846 14.2016V10.0385H3.93077H6.45382H16.5461H19.0692H20.9615V14.1385Z" fill="black"/>
<path d="M14.0231 16.977H10.4907L13.8338 13.6339C14.0861 13.3816 14.0861 13.0031 13.8338 12.7508C13.5815 12.4984 13.2031 12.4985 12.9507 12.7508L8.53536 17.1661C8.34613 17.3554 8.28307 17.6076 8.40918 17.86C8.47223 18.1123 8.72459 18.2385 8.97687 18.2385H12.5092L9.1661 21.5816C8.91382 21.8338 8.91382 22.2123 9.1661 22.4647C9.29228 22.5908 9.41839 22.6539 9.60762 22.6539C9.79685 22.6539 9.92302 22.5908 10.0491 22.4647L14.4645 18.0493C14.6537 17.8601 14.7168 17.6078 14.5907 17.3554C14.5277 17.1031 14.2754 16.977 14.0231 16.977Z" fill="black"/>
</svg>
