<svg width="0" height="0" class="hidden" xmlns="http://www.w3.org/2000/svg" xmlns:xlink="http://www.w3.org/1999/xlink">
<symbol fill="none" xmlns="http://www.w3.org/2000/svg" viewBox="0 0 39 39" id="battery">
    <g clip-path="url(#clip0)" fill="#000">
      <path d="M26.031 3.73H12.969a2.618 2.618 0 00-2.615 2.616v29.462a2.618 2.618 0 002.615 2.615h13.062a2.618 2.618 0 002.615-2.615V6.346a2.618 2.618 0 00-2.615-2.615zm1.354 32.078c0 .746-.608 1.354-1.354 1.354H12.969a1.355 1.355 0 01-1.354-1.354V6.346c0-.746.608-1.354 1.354-1.354h13.062c.746 0 1.354.608 1.354 1.354v29.462z"></path>
      <path d="M22.97.577h-6.94a.63.63 0 00-.63.63v3.155c0 .348.282.63.63.63h6.94a.63.63 0 00.63-.63V1.208a.63.63 0 00-.63-.631zm-.631 3.154h-5.677V1.838h5.677v1.893zM24.132 17.9a.63.63 0 00-.532-.292h-3.785V11.93a.63.63 0 00-1.202-.267l-4.415 9.461a.63.63 0 00.571.898h3.785V27.7a.63.63 0 001.202.267l4.416-9.462a.631.631 0 00-.04-.605zm-5.578 2.862H15.76l2.794-5.988v5.988zm1.261 4.095v-5.988h2.794l-2.794 5.988z"></path>
    </g>
    <defs>
      <clipPath id="clip0">
        <path fill="#fff" transform="translate(.577 .577)" d="M0 0h37.846v37.846H0z"></path>
      </clipPath>
    </defs>
  </symbol>

  <symbol fill="none" xmlns="http://www.w3.org/2000/svg" viewBox="0 0 39 39" id="charge">
    <g clip-path="url(#clip0)" fill="#000">
      <path d="M29.592 8.777H27.7V2.469c0-1.072-.82-1.892-1.892-1.892-1.073 0-1.893.82-1.893 1.892v6.308h-8.83V2.469c0-1.072-.82-1.892-1.893-1.892-1.072 0-1.892.82-1.892 1.892v6.308H9.408c-.379 0-.631.252-.631.63v4.794a12.58 12.58 0 003.343 8.516c1.892 2.145 2.965 4.92 2.965 7.758v1.64a3.123 3.123 0 003.154 3.154h.63v2.523c0 .379.253.631.631.631s.63-.252.63-.63v-2.524h.632a3.123 3.123 0 003.153-3.154v-1.577c0-2.901 1.01-5.613 2.965-7.758a12.737 12.737 0 003.343-8.578V9.408c0-.379-.252-.631-.63-.631zm-4.415-6.308c0-.378.252-.63.63-.63.38 0 .631.252.631.63v6.308h-1.261V2.469zm-12.615 0c0-.315.252-.63.63-.63.379 0 .631.252.631.63v6.308h-1.262V2.469zm16.4 11.67c0 2.901-1.01 5.613-2.965 7.758a12.737 12.737 0 00-3.343 8.578v1.64c0 1.073-.82 1.893-1.892 1.893h-2.524a1.858 1.858 0 01-1.892-1.893v-1.577c0-3.153-1.198-6.244-3.343-8.578-1.892-2.145-2.964-4.92-2.964-7.758v-4.163h18.923v4.1z"></path>
      <path d="M22.023 16.977h-3.532l3.343-3.343a.61.61 0 000-.883.61.61 0 00-.883 0l-4.416 4.415c-.189.19-.252.442-.126.694.063.252.316.378.568.378h3.532l-3.343 3.344a.61.61 0 000 .883.573.573 0 00.442.189.57.57 0 00.441-.19l4.416-4.415c.189-.189.252-.441.126-.694-.063-.252-.316-.378-.568-.378z"></path>
    </g>
    <defs>
      <clipPath id="clip0">
        <path fill="#fff" transform="translate(.577 .577)" d="M0 0h37.846v37.846H0z"></path>
      </clipPath>
    </defs>
  </symbol>

  <symbol fill="none" xmlns="http://www.w3.org/2000/svg" viewBox="0 0 41 41" id="Ear">
    <g clip-path="url(#clip0)" fill="#000">
      <path d="M12.592.788C6.084.788.788 6.525.788 13.608a9.503 9.503 0 001.307 4.667c.393.67.73 1.372 1.006 2.098a1.32 1.32 0 01-.438 1.472 3.246 3.246 0 00-1.219 2.551 3.279 3.279 0 001.438 2.723c.325.22.522.584.53.976v5.482c0 3.616 2.647 6.558 5.901 6.558 3.255 0 5.902-2.942 5.902-6.558a9.222 9.222 0 013.214-7.03 16.61 16.61 0 005.967-12.971c0-7.05-5.295-12.788-11.804-12.788zm4.984 24.763a10.529 10.529 0 00-3.672 8.026c0 2.893-2.06 5.246-4.59 5.246-2.531 0-4.59-2.353-4.59-5.246v-5.482a2.54 2.54 0 00-1.073-2.04 1.975 1.975 0 01-.895-1.659 1.94 1.94 0 01.747-1.545 2.623 2.623 0 00.83-2.93 15.256 15.256 0 00-1.1-2.294A8.225 8.225 0 012.1 13.576C2.1 7.248 6.807 2.1 12.592 2.1c5.786 0 10.493 5.148 10.493 11.476a15.338 15.338 0 01-5.509 11.975z"></path>
      <path d="M12.592 4.067c-3.654 0-6.77 2.592-7.98 6.214a10.493 10.493 0 00-.546 3.325c0 .787 0 3.194 1.504 4.697a.656.656 0 00.927-.927 4.012 4.012 0 01-.993-2.144c.106-.007.21-.015.32-.015 3.01-.002 5.457 2.753 5.457 6.136 0 .314-.015.61-.04.9-.326.35-.673.678-1.04.984a7.815 7.815 0 00-2.855 6.405.656.656 0 101.312 0 6.51 6.51 0 012.39-5.401 8.993 8.993 0 003.512-7.478c0-4.105-3.09-7.45-6.886-7.45a6.34 6.34 0 00-1.298.138 7.102 7.102 0 016.216-4.072c3.978 0 7.214 3.69 7.214 8.226a11.955 11.955 0 01-4.225 9.293c-.09.078-.19.162-.3.253-1.304 1.084-4.019 3.344-4.652 9.042a.656.656 0 00.58.722.67.67 0 00.072.006.656.656 0 00.65-.583c.576-5.175 2.926-7.13 4.189-8.18.116-.096.223-.186.318-.268a13.235 13.235 0 004.68-10.285c0-5.26-3.825-9.538-8.526-9.538zm-4.918 6.558c3.074 0 5.574 2.754 5.574 6.138a8.377 8.377 0 01-.721 3.607c-.44-3.646-3.275-6.466-6.702-6.466-.152 0-.297.011-.444.021v-.32c0-.877.126-1.75.373-2.591a4.993 4.993 0 011.92-.389zm25.903 5.246a7.726 7.726 0 012.434-5.443.656.656 0 10-.933-.918 9.007 9.007 0 00-2.813 6.361 9.007 9.007 0 002.813 6.361.656.656 0 10.932-.918 7.727 7.727 0 01-2.433-5.443z"></path>
      <path d="M37.948 12.102a.656.656 0 00-.926.054 5.41 5.41 0 000 7.43.656.656 0 00.98-.872 4.1 4.1 0 010-5.686.656.656 0 00-.054-.926z"></path>
      <path d="M39.966 14.12a.656.656 0 00-.926-.048 2.29 2.29 0 000 3.598.656.656 0 10.878-.975 1.17 1.17 0 01-.44-.824 1.17 1.17 0 01.44-.824.656.656 0 00.048-.926zm-9.668 1.751c0-2.885 1.293-5.674 3.738-8.055a.657.657 0 10-.918-.94c-2.702 2.634-4.131 5.744-4.131 8.995 0 3.25 1.43 6.361 4.13 8.995a.657.657 0 00.919-.94c-2.445-2.381-3.738-5.17-3.738-8.055z"></path>
      <path d="M27.02 15.871c0-3.603 1.522-7.073 4.404-10.033a.657.657 0 00-.94-.918c-3.124 3.213-4.776 7-4.776 10.951 0 3.951 1.652 7.738 4.776 10.952a.657.657 0 00.94-.919c-2.882-2.96-4.405-6.43-4.405-10.033z"></path>
    </g>
    <defs>
      <clipPath id="clip0">
        <path fill="#fff" transform="translate(.788 .788)" d="M0 0h39.423v39.346H0z"></path>
      </clipPath>
    </defs>
  </symbol>

  <symbol fill="none" xmlns="http://www.w3.org/2000/svg" viewBox="0 0 68 68" id="big-battery">
    <path d="M46.536 8H40V4H28v4h-6.536A3.468 3.468 0 0018 11.464v49.072A3.468 3.468 0 0021.464 64h25.072A3.468 3.468 0 0050 60.536V11.464A3.468 3.468 0 0046.536 8zM20 23h28v12H20V23zm0 14h28v12H20V37zM30 6h8v2h-8V6zm-8.536 4h25.072c.808 0 1.464.656 1.464 1.464V21H20v-9.536c0-.808.656-1.464 1.464-1.464zm25.072 52H21.464A1.465 1.465 0 0120 60.536V51h28v9.536c0 .808-.656 1.464-1.464 1.464z" fill="#000"></path>
  </symbol>

  <symbol fill="none" xmlns="http://www.w3.org/2000/svg" viewBox="0 0 53 53" id="sound">
    <g clip-path="url(#clip0)" fill="#000">
      <path d="M28.404 3.413a3.029 3.029 0 00-3.09.044.929.929 0 00-.13.093l-13.55 11.463H1a1 1 0 00-1 1v19a1.002 1.002 0 001 1l10.61-.005 13.543 12.44c.05.046.104.086.161.12a3.055 3.055 0 001.582.446 3.07 3.07 0 001.508-.402A3.122 3.122 0 0030 45.857V6.169a3.125 3.125 0 00-1.596-2.756zM28 45.857c0 .431-.217.81-.579 1.015a1.049 1.049 0 01-1 .026L13 34.569v-4.556a1 1 0 10-2 0v3.996l-9 .004v-17h9v4a1 1 0 102 0v-4.536l13.405-11.34c.461-.242.86-.07 1.016.018.362.205.579.584.579 1.014v39.688zM38.797 7.066a1.002 1.002 0 00-.643 1.895 17.48 17.48 0 0111.872 16.553 17.492 17.492 0 01-11.849 16.554 1 1 0 00.646 1.893 19.489 19.489 0 0013.202-18.446A19.478 19.478 0 0038.797 7.066z"></path>
      <path d="M43.026 25.513c0-5.972-4.009-11.302-9.749-12.962a1 1 0 00-.554 1.922c4.889 1.413 8.304 5.953 8.304 11.04 0 5.087-3.415 9.627-8.304 11.04a1 1 0 00.554 1.922c5.741-1.66 9.749-6.99 9.749-12.962z"></path>
    </g>
    <defs>
      <clipPath id="clip0">
        <path fill="#fff" d="M0 0h52.026v52.026H0z"></path>
      </clipPath>
    </defs>
</symbol>

 <symbol fill="none" xmlns="http://www.w3.org/2000/svg" viewBox="0 0 60 60" id="time">
    <path d="M31.634 37.989a3.558 3.558 0 002.606-1.459l9.363-12.944a1 1 0 00-1.397-1.397L29.26 31.555a3.557 3.557 0 00-1.456 2.604 3.56 3.56 0 001.033 2.797 3.554 3.554 0 002.797 1.033zm-1.836-3.674a1.56 1.56 0 01.637-1.142l7.897-5.713-5.711 7.895a1.565 1.565 0 01-2.371.187 1.564 1.564 0 01-.452-1.227z" fill="#000"></path>
    <path d="M54.034 19.564c-.01-.021-.01-.043-.021-.064-.012-.02-.031-.031-.044-.05a27.185 27.185 0 00-3.565-4.809l2.148-2.147 1.414 1.414 4.242-4.243-4.242-4.242-4.243 4.242 1.415 1.415-2.148 2.147a27.154 27.154 0 00-4.809-3.566c-.019-.013-.03-.032-.05-.044-.021-.012-.043-.011-.064-.022a26.81 26.81 0 00-10.273-3.404V5h1.5c1.379 0 2.5-1.121 2.5-2.5S36.672 0 35.293 0h-9a2.502 2.502 0 00-2.5 2.5c0 1.379 1.121 2.5 2.5 2.5h1.5v1.156c-1.08.115-2.158.291-3.224.535a1 1 0 10.447 1.949 25.43 25.43 0 012.78-.477l1.073-.083c.328-.025.63-.043.924-.057V10a1 1 0 102 0V8.03a24.805 24.805 0 0110.456 2.845l-.986 1.707a1 1 0 001.732 1l.983-1.703a25.194 25.194 0 017.772 7.772l-1.703.983a1 1 0 001.002 1.732l1.707-.986a24.82 24.82 0 012.849 10.619H53.63a1 1 0 100 2h1.975a24.82 24.82 0 01-2.849 10.619l-1.707-.986a1 1 0 00-1 1.732l1.703.983a25.194 25.194 0 01-7.772 7.772l-.983-1.703a.998.998 0 00-1.366-.366.999.999 0 00-.366 1.366l.986 1.707a24.805 24.805 0 01-10.456 2.845V56a1 1 0 10-2 0v1.976a25.235 25.235 0 01-4.776-.617.996.996 0 00-1.198.751 1 1 0 00.751 1.198c1.996.46 4.035.692 6.058.692.049 0 .096-.003.145-.004.007 0 .012.004.018.004.008 0 .015-.005.023-.005a26.825 26.825 0 0013.219-3.573c.031-.014.064-.021.094-.039.02-.012.031-.031.05-.044a27.197 27.197 0 009.773-9.761c.019-.027.043-.048.06-.078.012-.021.011-.043.021-.064A26.808 26.808 0 0057.63 33c0-4.89-1.313-9.476-3.596-13.436zm-.069-11.313l1.414 1.414-1.414 1.415-1.415-1.415 1.415-1.414zm-24.172-2.23V3h-3.5a.501.501 0 01-.5-.5c0-.275.225-.5.5-.5h9c.275 0 .5.225.5.5s-.225.5-.5.5h-3.5v3.021c-.348-.014-.68-.021-1-.021l-.088.002L30.63 6c-.164 0-.328.011-.492.014-.116.003-.225.002-.345.007zm-8 7.979h-5a1 1 0 100 2h5a1 1 0 100-2zm0 7h-10a1 1 0 100 2h10a1 1 0 100-2zm0 7h-15a1 1 0 100 2h15a1 1 0 100-2zm0 7h-19a1 1 0 100 2h19a1 1 0 100-2zm0 7h-13a1 1 0 100 2h13a1 1 0 100-2zm0 7h-7a1 1 0 100 2h7a1 1 0 100-2z" fill="#000"></path>
  </symbol>
</svg>