<svg width="0" height="0" class="hidden" xmlns="http://www.w3.org/2000/svg" xmlns:xlink="http://www.w3.org/1999/xlink">
<symbol fill="none" xmlns="http://www.w3.org/2000/svg" viewBox="0 0 39 39" id="battery">
    <g clip-path="url(#clip0)" fill="#000">
      <path d="M26.031 3.73H12.969a2.618 2.618 0 00-2.615 2.616v29.462a2.618 2.618 0 002.615 2.615h13.062a2.618 2.618 0 002.615-2.615V6.346a2.618 2.618 0 00-2.615-2.615zm1.354 32.078c0 .746-.608 1.354-1.354 1.354H12.969a1.355 1.355 0 01-1.354-1.354V6.346c0-.746.608-1.354 1.354-1.354h13.062c.746 0 1.354.608 1.354 1.354v29.462z"></path>
      <path d="M22.97.577h-6.94a.63.63 0 00-.63.63v3.155c0 .348.282.63.63.63h6.94a.63.63 0 00.63-.63V1.208a.63.63 0 00-.63-.631zm-.631 3.154h-5.677V1.838h5.677v1.893zM24.132 17.9a.63.63 0 00-.532-.292h-3.785V11.93a.63.63 0 00-1.202-.267l-4.415 9.461a.63.63 0 00.571.898h3.785V27.7a.63.63 0 001.202.267l4.416-9.462a.631.631 0 00-.04-.605zm-5.578 2.862H15.76l2.794-5.988v5.988zm1.261 4.095v-5.988h2.794l-2.794 5.988z"></path>
    </g>
    <defs>
      <clipPath id="clip0">
        <path fill="#fff" transform="translate(.577 .577)" d="M0 0h37.846v37.846H0z"></path>
      </clipPath>
    </defs>
  </symbol>

  <symbol fill="none" xmlns="http://www.w3.org/2000/svg" viewBox="0 0 39 39" id="charge">
    <g clip-path="url(#clip0)" fill="#000">
      <path d="M29.592 8.777H27.7V2.469c0-1.072-.82-1.892-1.892-1.892-1.073 0-1.893.82-1.893 1.892v6.308h-8.83V2.469c0-1.072-.82-1.892-1.893-1.892-1.072 0-1.892.82-1.892 1.892v6.308H9.408c-.379 0-.631.252-.631.63v4.794a12.58 12.58 0 003.343 8.516c1.892 2.145 2.965 4.92 2.965 7.758v1.64a3.123 3.123 0 003.154 3.154h.63v2.523c0 .379.253.631.631.631s.63-.252.63-.63v-2.524h.632a3.123 3.123 0 003.153-3.154v-1.577c0-2.901 1.01-5.613 2.965-7.758a12.737 12.737 0 003.343-8.578V9.408c0-.379-.252-.631-.63-.631zm-4.415-6.308c0-.378.252-.63.63-.63.38 0 .631.252.631.63v6.308h-1.261V2.469zm-12.615 0c0-.315.252-.63.63-.63.379 0 .631.252.631.63v6.308h-1.262V2.469zm16.4 11.67c0 2.901-1.01 5.613-2.965 7.758a12.737 12.737 0 00-3.343 8.578v1.64c0 1.073-.82 1.893-1.892 1.893h-2.524a1.858 1.858 0 01-1.892-1.893v-1.577c0-3.153-1.198-6.244-3.343-8.578-1.892-2.145-2.964-4.92-2.964-7.758v-4.163h18.923v4.1z"></path>
      <path d="M22.023 16.977h-3.532l3.343-3.343a.61.61 0 000-.883.61.61 0 00-.883 0l-4.416 4.415c-.189.19-.252.442-.126.694.063.252.316.378.568.378h3.532l-3.343 3.344a.61.61 0 000 .883.573.573 0 00.442.189.57.57 0 00.441-.19l4.416-4.415c.189-.189.252-.441.126-.694-.063-.252-.316-.378-.568-.378z"></path>
    </g>
    <defs>
      <clipPath id="clip0">
        <path fill="#fff" transform="translate(.577 .577)" d="M0 0h37.846v37.846H0z"></path>
      </clipPath>
    </defs>
  </symbol>

  <symbol fill="none" xmlns="http://www.w3.org/2000/svg" viewBox="0 0 41 41" id="Ear">
    <g clip-path="url(#clip0)" fill="#000">
      <path d="M12.592.788C6.084.788.788 6.525.788 13.608a9.503 9.503 0 001.307 4.667c.393.67.73 1.372 1.006 2.098a1.32 1.32 0 01-.438 1.472 3.246 3.246 0 00-1.219 2.551 3.279 3.279 0 001.438 2.723c.325.22.522.584.53.976v5.482c0 3.616 2.647 6.558 5.901 6.558 3.255 0 5.902-2.942 5.902-6.558a9.222 9.222 0 013.214-7.03 16.61 16.61 0 005.967-12.971c0-7.05-5.295-12.788-11.804-12.788zm4.984 24.763a10.529 10.529 0 00-3.672 8.026c0 2.893-2.06 5.246-4.59 5.246-2.531 0-4.59-2.353-4.59-5.246v-5.482a2.54 2.54 0 00-1.073-2.04 1.975 1.975 0 01-.895-1.659 1.94 1.94 0 01.747-1.545 2.623 2.623 0 00.83-2.93 15.256 15.256 0 00-1.1-2.294A8.225 8.225 0 012.1 13.576C2.1 7.248 6.807 2.1 12.592 2.1c5.786 0 10.493 5.148 10.493 11.476a15.338 15.338 0 01-5.509 11.975z"></path>
      <path d="M12.592 4.067c-3.654 0-6.77 2.592-7.98 6.214a10.493 10.493 0 00-.546 3.325c0 .787 0 3.194 1.504 4.697a.656.656 0 00.927-.927 4.012 4.012 0 01-.993-2.144c.106-.007.21-.015.32-.015 3.01-.002 5.457 2.753 5.457 6.136 0 .314-.015.61-.04.9-.326.35-.673.678-1.04.984a7.815 7.815 0 00-2.855 6.405.656.656 0 101.312 0 6.51 6.51 0 012.39-5.401 8.993 8.993 0 003.512-7.478c0-4.105-3.09-7.45-6.886-7.45a6.34 6.34 0 00-1.298.138 7.102 7.102 0 016.216-4.072c3.978 0 7.214 3.69 7.214 8.226a11.955 11.955 0 01-4.225 9.293c-.09.078-.19.162-.3.253-1.304 1.084-4.019 3.344-4.652 9.042a.656.656 0 00.58.722.67.67 0 00.072.006.656.656 0 00.65-.583c.576-5.175 2.926-7.13 4.189-8.18.116-.096.223-.186.318-.268a13.235 13.235 0 004.68-10.285c0-5.26-3.825-9.538-8.526-9.538zm-4.918 6.558c3.074 0 5.574 2.754 5.574 6.138a8.377 8.377 0 01-.721 3.607c-.44-3.646-3.275-6.466-6.702-6.466-.152 0-.297.011-.444.021v-.32c0-.877.126-1.75.373-2.591a4.993 4.993 0 011.92-.389zm25.903 5.246a7.726 7.726 0 012.434-5.443.656.656 0 10-.933-.918 9.007 9.007 0 00-2.813 6.361 9.007 9.007 0 002.813 6.361.656.656 0 10.932-.918 7.727 7.727 0 01-2.433-5.443z"></path>
      <path d="M37.948 12.102a.656.656 0 00-.926.054 5.41 5.41 0 000 7.43.656.656 0 00.98-.872 4.1 4.1 0 010-5.686.656.656 0 00-.054-.926z"></path>
      <path d="M39.966 14.12a.656.656 0 00-.926-.048 2.29 2.29 0 000 3.598.656.656 0 10.878-.975 1.17 1.17 0 01-.44-.824 1.17 1.17 0 01.44-.824.656.656 0 00.048-.926zm-9.668 1.751c0-2.885 1.293-5.674 3.738-8.055a.657.657 0 10-.918-.94c-2.702 2.634-4.131 5.744-4.131 8.995 0 3.25 1.43 6.361 4.13 8.995a.657.657 0 00.919-.94c-2.445-2.381-3.738-5.17-3.738-8.055z"></path>
      <path d="M27.02 15.871c0-3.603 1.522-7.073 4.404-10.033a.657.657 0 00-.94-.918c-3.124 3.213-4.776 7-4.776 10.951 0 3.951 1.652 7.738 4.776 10.952a.657.657 0 00.94-.919c-2.882-2.96-4.405-6.43-4.405-10.033z"></path>
    </g>
    <defs>
      <clipPath id="clip0">
        <path fill="#fff" transform="translate(.788 .788)" d="M0 0h39.423v39.346H0z"></path>
      </clipPath>
    </defs>
  </symbol>
</svg>